<svg width="16" height="16" viewBox="0 0 16 16" fill="none" xmlns="http://www.w3.org/2000/svg">
<path fill-rule="evenodd" clip-rule="evenodd" d="M1.99992 6.66663C2.36811 6.66663 2.66659 6.9651 2.66659 7.33329V9.33329H13.3333V7.33329C13.3333 6.9651 13.6317 6.66663 13.9999 6.66663C14.3681 6.66663 14.6666 6.9651 14.6666 7.33329V9.33329C14.6666 9.68691 14.5261 10.0261 14.2761 10.2761C14.026 10.5262 13.6869 10.6666 13.3333 10.6666H2.66659C2.31296 10.6666 1.97382 10.5262 1.72378 10.2761C1.47373 10.0261 1.33325 9.68692 1.33325 9.33329V7.33329C1.33325 6.9651 1.63173 6.66663 1.99992 6.66663Z" fill="#BB9F3A"/>
<path fill-rule="evenodd" clip-rule="evenodd" d="M1.72378 9.7239C1.97382 9.47385 2.31296 9.33337 2.66659 9.33337H13.3333C13.6869 9.33337 14.026 9.47385 14.2761 9.7239C14.5261 9.97395 14.6666 10.3131 14.6666 10.6667V12C14.6666 12.3537 14.5261 12.6928 14.2761 12.9429C14.026 13.1929 13.6869 13.3334 13.3333 13.3334H10.7799C10.4117 13.3334 10.1133 13.0349 10.1133 12.6667C10.1133 12.2985 10.4117 12 10.7799 12H13.3333V10.6667L2.66659 10.6667V12L7.99992 12C8.36811 12 8.66659 12.2985 8.66659 12.6667C8.66659 13.0349 8.36811 13.3334 7.99992 13.3334H2.66659C2.31296 13.3334 1.97383 13.1929 1.72378 12.9429C1.47373 12.6928 1.33325 12.3537 1.33325 12V10.6667C1.33325 10.3131 1.47373 9.97395 1.72378 9.7239Z" fill="#BB9F3A"/>
<path fill-rule="evenodd" clip-rule="evenodd" d="M7.99996 3.69137C7.8514 3.69137 7.7071 3.74098 7.58996 3.83235L3.94383 6.66666H12.0561L8.40996 3.83235C8.29282 3.74098 8.14852 3.69137 7.99996 3.69137ZM6.77046 2.78058C7.1218 2.50675 7.5545 2.35803 7.99996 2.35803C8.44542 2.35803 8.87812 2.50675 9.22945 2.78058C9.22928 2.78045 9.22962 2.78072 9.22945 2.78058L14.4091 6.80699C14.634 6.9818 14.723 7.28017 14.6306 7.5496C14.5382 7.81903 14.2848 8 14 8H1.99996C1.71512 8 1.46175 7.81903 1.36935 7.5496C1.27694 7.28017 1.36592 6.9818 1.59081 6.80699L6.77046 2.78058C6.77063 2.78045 6.7703 2.78072 6.77046 2.78058Z" fill="#BB9F3A"/>
<path fill-rule="evenodd" clip-rule="evenodd" d="M4.03755 9.77956C4.13121 9.5123 4.3835 9.33337 4.6667 9.33337H13C13.2587 9.33337 13.494 9.48301 13.6038 9.71727C13.7135 9.95153 13.6778 10.2281 13.5122 10.4268L11.0095 13.43C10.6729 13.8288 10.1938 14.0803 9.67444 14.1307C9.1553 14.1811 8.63702 14.0267 8.23009 13.7005C8.22989 13.7003 8.2297 13.7002 8.2295 13.7L4.25056 10.5209C4.02931 10.3441 3.94389 10.0468 4.03755 9.77956ZM6.56909 10.6667L9.06391 12.6601C9.19958 12.7689 9.37242 12.8204 9.54555 12.8036C9.7181 12.7869 9.87732 12.7035 9.98945 12.5714L11.5767 10.6667H6.56909Z" fill="#BB9F3A"/>
</svg>
