<svg width="17" height="16" viewBox="0 0 17 16" fill="none" xmlns="http://www.w3.org/2000/svg">
<path fill-rule="evenodd" clip-rule="evenodd" d="M5.17364 2.66672C6.05507 2.66821 6.82625 2.9541 7.44006 3.26553C7.74881 3.42218 8.02541 3.58935 8.25932 3.73546C8.32897 3.77897 8.39264 3.81917 8.45149 3.85632C8.46806 3.86678 8.48425 3.877 8.50008 3.88698C8.51591 3.877 8.5321 3.86678 8.54868 3.85632C8.60752 3.81917 8.6712 3.77897 8.74085 3.73546C8.97476 3.58935 9.25136 3.42218 9.56011 3.26553C10.1741 2.95399 10.9456 2.66801 11.8274 2.66672C12.8647 2.64904 13.8672 3.04119 14.6172 3.75819C15.3688 4.47669 15.8058 5.46313 15.8332 6.50252C15.8333 6.50836 15.8334 6.5142 15.8334 6.52005C15.8334 8.04558 15.3019 10.176 14.5258 11.9195C14.1361 12.795 13.6673 13.6134 13.1405 14.2246C12.6328 14.8138 11.9636 15.3334 11.1667 15.3334C10.6332 15.3334 10.12 15.1244 9.73286 14.9667C9.70325 14.9547 9.67438 14.9429 9.64629 14.9316C9.19939 14.7511 8.85372 14.6267 8.50008 14.6267C8.14645 14.6267 7.80077 14.7511 7.35387 14.9316C7.32579 14.9429 7.29692 14.9547 7.26731 14.9667C6.88016 15.1244 6.36699 15.3334 5.83342 15.3334C5.03659 15.3334 4.36736 14.8138 3.85964 14.2246C3.33289 13.6134 2.86405 12.795 2.47436 11.9195C1.69831 10.176 1.16675 8.04558 1.16675 6.52005L1.16694 6.50387C1.19221 5.46342 1.6288 4.4754 2.38108 3.75622C3.1317 3.03863 4.13557 2.64705 5.17364 2.66672ZM5.15295 3.99991C4.46514 3.98566 3.79973 4.2446 3.30245 4.71999C2.80708 5.19357 2.51879 5.8435 2.50009 6.52837C2.5021 7.81621 2.97008 9.7543 3.69247 11.3773C4.05278 12.1868 4.45894 12.8776 4.86969 13.3542C5.29947 13.853 5.63024 14 5.83342 14C6.09237 14 6.37497 13.8889 6.85463 13.6952C7.28273 13.5223 7.85372 13.2934 8.50008 13.2934C9.14645 13.2934 9.71744 13.5223 10.1455 13.6952C10.6252 13.8889 10.9078 14 11.1667 14C11.3699 14 11.7007 13.853 12.1305 13.3542C12.5412 12.8776 12.9474 12.1868 13.3077 11.3773C14.03 9.7546 14.4979 7.81692 14.5001 6.52907C14.4798 5.84455 14.191 5.19535 13.6958 4.72197C13.1986 4.24662 12.5336 3.98709 11.8459 3.99993L11.8334 4.00005C11.2377 4.00005 10.678 4.19348 10.1634 4.45457C9.90714 4.58459 9.66957 4.72742 9.44724 4.8663C9.39545 4.89865 9.34262 4.93201 9.28962 4.96548C9.1282 5.06741 8.96527 5.1703 8.82582 5.24839C8.62345 5.36172 8.37672 5.36172 8.17435 5.24839C8.0349 5.1703 7.87197 5.06741 7.71055 4.96548C7.65755 4.93201 7.60472 4.89865 7.55293 4.8663C7.33059 4.72742 7.09303 4.58459 6.83677 4.45457C6.32218 4.19348 5.76245 4.00005 5.16675 4.00005L5.15295 3.99991Z" fill="#E07B67"/>
<path fill-rule="evenodd" clip-rule="evenodd" d="M6.57028 1.03517C6.73494 0.705855 7.13539 0.572372 7.46471 0.737032C8.45912 1.23423 9.16657 2.55283 9.16657 4.66665C9.16657 5.03484 8.86809 5.33332 8.4999 5.33332C8.13171 5.33332 7.83324 5.03484 7.83324 4.66665C7.83324 2.78046 7.20735 2.09907 6.86843 1.9296C6.53911 1.76494 6.40562 1.36449 6.57028 1.03517Z" fill="#E07B67"/>
</svg>
