<svg width="17" height="16" viewBox="0 0 17 16" fill="none" xmlns="http://www.w3.org/2000/svg">
<path fill-rule="evenodd" clip-rule="evenodd" d="M8.83333 4.66671C8.28105 4.66671 7.83333 5.11442 7.83333 5.66671C7.83333 6.21899 8.28105 6.66671 8.83333 6.66671C9.38562 6.66671 9.83333 6.21899 9.83333 5.66671C9.83333 5.11442 9.38562 4.66671 8.83333 4.66671ZM6.5 5.66671C6.5 4.37804 7.54467 3.33337 8.83333 3.33337C10.122 3.33337 11.1667 4.37804 11.1667 5.66671C11.1667 6.95537 10.122 8.00004 8.83333 8.00004C7.54467 8.00004 6.5 6.95537 6.5 5.66671Z" fill="#DB5BBF"/>
<path fill-rule="evenodd" clip-rule="evenodd" d="M8.8333 0.666627C7.76206 0.666071 6.71896 1.00958 5.85766 1.64655L8.8333 0.666627ZM8.8329 1.99996C8.04723 1.99949 7.28217 2.2514 6.65048 2.71857C6.01878 3.18574 5.55385 3.84347 5.32419 4.59483C5.3215 4.60361 5.31864 4.61234 5.31559 4.621C5.14646 5.10226 5.02955 5.49635 4.92489 5.84914C4.91994 5.86583 4.91502 5.88243 4.91012 5.89893C4.80357 6.2579 4.70199 6.59728 4.56684 6.92098C4.27957 7.60901 3.86182 8.17747 3.01488 8.94677C3.00654 8.95435 2.99801 8.96171 2.9893 8.96885C2.77675 9.1431 2.62325 9.37879 2.5498 9.64364C2.47635 9.90849 2.48654 10.1896 2.57898 10.4484C2.67142 10.7072 2.84159 10.9312 3.06621 11.0896C3.29082 11.248 3.5589 11.3331 3.83375 11.3333C6.325 11.3332 9.11069 10.201 11.0065 8.62115C11.0153 8.61386 11.0242 8.60679 11.0333 8.59996C11.649 8.13822 12.1037 7.49447 12.3332 6.75991C12.5626 6.02534 12.5552 5.2372 12.3118 4.50712C12.0685 3.77705 11.6015 3.14205 10.9772 2.69207C10.3529 2.2421 9.60247 1.99996 8.8329 1.99996ZM8.8333 0.666627C9.88258 0.66671 10.9056 0.996891 11.7569 1.61042C12.6082 2.22402 13.2449 3.08993 13.5767 4.08549C13.9086 5.08105 13.9188 6.15579 13.6059 7.15746C13.2947 8.1536 12.6797 9.02726 11.8472 9.65615C9.74348 11.404 6.66948 12.6666 3.8333 12.6666C3.2836 12.6663 2.74701 12.496 2.29778 12.1792C1.84855 11.8624 1.50821 11.4145 1.32332 10.8969C1.13844 10.3792 1.11805 9.81702 1.26496 9.28732C1.41022 8.76351 1.71206 8.29674 2.12982 7.94942C2.87425 7.27157 3.148 6.85861 3.33644 6.40727C3.43962 6.16014 3.52221 5.8891 3.63191 5.51953C3.63714 5.50188 3.64243 5.48405 3.64777 5.46604C3.75145 5.11653 3.87531 4.69894 4.05324 4.19156C4.36785 3.17261 5.00005 2.2808 5.85766 1.64655" fill="#DB5BBF"/>
<path d="M3.91094 13.1151C3.81849 12.8563 3.8083 12.5752 3.88175 12.3103L1.83325 11.6666L2.65528 13.5635C2.84016 14.0812 3.18051 14.5291 3.62974 14.8459C4.07896 15.1627 4.61556 15.3329 5.16526 15.3333C8.00144 15.3333 11.0754 14.0707 13.1792 12.3228C14.0116 11.6939 14.6267 10.8203 14.9378 9.82415C15.2507 8.82247 15.2405 7.74773 14.9087 6.75217C14.5768 5.75661 12.8333 2.66663 12.8333 2.66663L13.4999 6.99997C13.7433 7.73005 13.8946 8.69203 13.6651 9.42659C13.4357 10.1612 12.9809 10.8049 12.3653 11.2666C12.3561 11.2735 12.3472 11.2805 12.3385 11.2878C10.4426 12.8677 7.65696 13.9998 5.1657 14C4.89085 13.9998 4.62278 13.9147 4.39816 13.7563C4.17355 13.5979 4.00338 13.3739 3.91094 13.1151Z" fill="#DB5BBF"/>
</svg>
