<svg width="16" height="16" viewBox="0 0 16 16" fill="none" xmlns="http://www.w3.org/2000/svg">
<path fill-rule="evenodd" clip-rule="evenodd" d="M4.66675 1.33329C4.66675 0.965103 4.96522 0.666626 5.33341 0.666626H10.6667C11.0349 0.666626 11.3334 0.965103 11.3334 1.33329C11.3334 1.70148 11.0349 1.99996 10.6667 1.99996H5.33341C4.96522 1.99996 4.66675 1.70148 4.66675 1.33329Z" fill="#7B94CB"/>
<path fill-rule="evenodd" clip-rule="evenodd" d="M6 0.666626C6.36819 0.666626 6.66667 0.965103 6.66667 1.33329V3.19263C6.66665 3.85076 6.47181 4.49418 6.1067 5.04176C6.10669 5.04178 6.10671 5.04174 6.1067 5.04176L5.66937 5.69776C5.45019 6.02645 5.33324 6.41274 5.33333 6.80781V13.3333C5.33333 13.5101 5.40357 13.6797 5.5286 13.8047C5.65362 13.9297 5.82319 14 6 14H10C10.1768 14 10.3464 13.9297 10.4714 13.8047C10.5964 13.6797 10.6667 13.5101 10.6667 13.3333V6.80731C10.6667 6.8073 10.6667 6.80732 10.6667 6.80731C10.6667 6.41242 10.5497 6.02636 10.3307 5.69781L9.89333 5.04181C9.89332 5.04179 9.89334 5.04183 9.89333 5.04181C9.5281 4.49404 9.33322 3.85033 9.33333 3.19196C9.33333 3.19191 9.33333 3.19201 9.33333 3.19196V1.33329C9.33333 0.965103 9.63181 0.666626 10 0.666626C10.3682 0.666626 10.6667 0.965103 10.6667 1.33329V3.19196C10.6666 3.58702 10.7835 3.97341 11.0027 4.30211L11.44 4.95811C11.8051 5.50569 12 6.14912 12 6.80728V13.3333C12 13.8637 11.7893 14.3724 11.4142 14.7475C11.0391 15.1226 10.5304 15.3333 10 15.3333H6C5.46957 15.3333 4.96086 15.1226 4.58579 14.7475C4.21071 14.3724 4 13.8637 4 13.3333V6.80811C4 6.80806 4 6.80816 4 6.80811C3.99988 6.14974 4.19473 5.50593 4.55997 4.95816C4.55996 4.95818 4.55998 4.95814 4.55997 4.95816L4.9973 4.30216C5.21637 3.97361 5.33332 3.58751 5.33333 3.19263C5.33333 3.19262 5.33333 3.19263 5.33333 3.19263V1.33329C5.33333 0.965103 5.63181 0.666626 6 0.666626Z" fill="#7B94CB"/>
<path fill-rule="evenodd" clip-rule="evenodd" d="M6.33326 10.3317C5.84942 10.3317 5.37041 10.428 4.92412 10.6149C4.5845 10.7571 4.1939 10.5971 4.05167 10.2575C3.90945 9.91788 4.06946 9.52728 4.40908 9.38506C5.01848 9.12984 5.67257 8.99841 6.33326 8.99841C6.99395 8.99841 7.64804 9.12984 8.25745 9.38506L8.25753 9.38509C8.70378 9.57204 9.18277 9.66832 9.6666 9.66832C10.1504 9.66832 10.6294 9.57204 11.0757 9.38509C11.4153 9.24282 11.8059 9.40278 11.9482 9.74238C12.0904 10.082 11.9305 10.4726 11.5909 10.6149C10.9815 10.8702 10.3273 11.0017 9.6666 11.0017C9.0059 11.0017 8.3518 10.8702 7.74241 10.6149M6.33326 10.3317C6.81708 10.3317 7.29606 10.428 7.74233 10.6149L6.33326 10.3317Z" fill="#7B94CB"/>
</svg>
