<svg width="17" height="16" viewBox="0 0 17 16" fill="none" xmlns="http://www.w3.org/2000/svg">
<path d="M5.0408 9.06059L5.78973 9.80587C6.05072 10.0656 6.47283 10.0646 6.73254 9.80357C6.99225 9.54258 6.99122 9.12047 6.73023 8.86076L5.71119 7.84669L5.0408 9.06059Z" fill="#8CAD51"/>
<path fill-rule="evenodd" clip-rule="evenodd" d="M8.38286 4.43616C7.90129 4.43578 7.42435 4.53026 6.97928 4.7142C6.53422 4.89814 6.12937 5.16832 5.78858 5.50858C5.24101 6.05614 4.69971 6.8943 4.20536 7.79148C3.70404 8.7013 3.22391 9.72255 2.80825 10.6739C2.39194 11.6267 2.03668 12.5178 1.78561 13.1702C1.65998 13.4967 1.56021 13.764 1.49169 13.9502C1.45742 14.0433 1.43096 14.1161 1.41296 14.1659L1.39241 14.223L1.38705 14.238L1.38512 14.2435L2.01332 14.4666L2.23663 15.0948L2.24173 15.093L2.25674 15.0876L2.31393 15.0671C2.36379 15.0491 2.43668 15.0226 2.52985 14.9884C2.71615 14.9199 2.98369 14.8201 3.3104 14.6946C3.96335 14.4436 4.85503 14.0886 5.80824 13.6727C6.75997 13.2575 7.78142 12.778 8.69091 12.2776C9.58742 11.7844 10.4249 11.2444 10.971 10.6984C11.0244 10.6452 11.076 10.5903 11.1258 10.534C11.151 10.5152 11.1752 10.4943 11.1981 10.4714C11.2558 10.4137 11.3007 10.348 11.3328 10.2779C11.5075 10.0406 11.6534 9.78268 11.7669 9.50934C11.9515 9.06456 12.0468 8.58777 12.0471 8.1062C12.0475 7.62462 11.953 7.14768 11.7691 6.70262C11.5852 6.25755 11.3154 5.85308 10.9751 5.51228C10.6348 5.17149 10.2308 4.90105 9.78601 4.71641C9.34123 4.53176 8.86444 4.43654 8.38286 4.43616ZM5.27506 12.4506C4.49349 12.7916 3.7526 13.0914 3.15594 13.3245C3.38908 12.7285 3.68892 11.9885 4.03005 11.2077C4.34112 10.4958 4.6844 9.75478 5.0408 9.06059L5.71119 7.84669C6.07193 7.24699 6.41872 6.76416 6.73113 6.45164C6.94799 6.23515 7.20537 6.06348 7.48856 5.94644C7.77181 5.82938 8.07533 5.76925 8.38182 5.76949C8.6883 5.76973 8.99173 5.83034 9.27479 5.94784C9.55785 6.06535 9.815 6.23746 10.0315 6.45435C10.2481 6.67123 10.4198 6.92865 10.5369 7.21189C10.6539 7.49514 10.714 7.79866 10.7138 8.10515C10.7136 8.37757 10.6657 8.64759 10.5725 8.90303L9.55805 7.88858C9.2977 7.62823 8.8756 7.62823 8.61525 7.88858C8.3549 8.14893 8.3549 8.57104 8.61525 8.83139L9.77199 9.98813C9.35526 10.3363 8.75921 10.7183 8.04822 11.1094C7.18771 11.5828 6.20666 12.0442 5.27506 12.4506Z" fill="#8CAD51"/>
<path d="M2.23663 15.0948C2.23663 15.0948 2.23613 15.095 2.01332 14.4666C1.38506 14.2436 1.38512 14.2435 1.38512 14.2435C1.29911 14.4858 1.36005 14.7561 1.54184 14.938C1.72362 15.1198 1.99429 15.1807 2.23663 15.0948Z" fill="#8CAD51"/>
<path fill-rule="evenodd" clip-rule="evenodd" d="M10.858 4.79904C11.3208 4.45371 12.0554 4 12.8334 4C13.7682 4 14.4977 4.43054 14.9678 4.81988C15.2058 5.01702 15.3895 5.21325 15.5146 5.36113C15.5775 5.43548 15.6265 5.49872 15.6611 5.54528C15.6784 5.5686 15.6922 5.58783 15.7023 5.60229L15.7148 5.62036L15.719 5.62658L15.7206 5.62896L15.7213 5.62996C15.7214 5.63018 15.7219 5.63084 15.1668 6C15.7219 6.36916 15.7217 6.36937 15.7216 6.36958L15.7206 6.37104L15.719 6.37342L15.7148 6.37964L15.7023 6.39771C15.6922 6.41217 15.6784 6.4314 15.6611 6.45472C15.6265 6.50128 15.5775 6.56452 15.5146 6.63887C15.3895 6.78675 15.2058 6.98299 14.9678 7.18012C14.4977 7.56946 13.7682 8 12.8334 8C11.8986 8 11.1692 7.56946 10.699 7.18012C10.461 6.98299 10.2773 6.78675 10.1522 6.63887C10.0893 6.56452 10.0403 6.50128 10.0058 6.45472C9.98844 6.4314 9.97468 6.41217 9.96454 6.39771L9.95203 6.37964L9.94781 6.37342L9.94621 6.37104L9.94554 6.37004C9.9454 6.36982 9.94496 6.36916 10.5001 6C10.0119 5.54599 10.012 5.54588 10.0121 5.54577L10.0129 5.54491L10.0144 5.54333L10.0187 5.53874L10.0327 5.52401C10.0444 5.5118 10.0607 5.49492 10.0814 5.47402C10.1227 5.43227 10.1814 5.37423 10.255 5.30531C10.4012 5.16819 10.6097 4.98436 10.858 4.79904ZM10.5001 6L10.0121 5.54577C9.80206 5.77163 9.77416 6.11232 9.94496 6.36916L10.5001 6ZM11.4282 6.04707C11.4661 6.08208 11.5066 6.11768 11.5495 6.15321C11.8843 6.43054 12.3215 6.66667 12.8334 6.66667C13.3453 6.66667 13.7825 6.43054 14.1174 6.15321C14.1797 6.10162 14.2368 6.0499 14.2884 6C14.2368 5.9501 14.1797 5.89838 14.1174 5.84679C13.7825 5.56946 13.3453 5.33333 12.8334 5.33333C12.5181 5.33333 12.0861 5.54629 11.6555 5.86762C11.5745 5.92805 11.4983 5.98873 11.4282 6.04707ZM15.1668 6L15.7216 6.36958C15.8703 6.14594 15.8706 5.85448 15.7219 5.63084L15.1668 6Z" fill="#8CAD51"/>
<path fill-rule="evenodd" clip-rule="evenodd" d="M10.8692 0.778166L10.5 1.33329L10.1308 0.778166C10.3545 0.629446 10.6455 0.629446 10.8692 0.778166ZM10.5 5.99996C10.1308 6.55509 10.1306 6.55495 10.1304 6.5548L10.129 6.55383L10.1266 6.55223L10.1204 6.54802L10.1023 6.5355C10.0878 6.52536 10.0686 6.5116 10.0453 6.49429C9.99872 6.45972 9.93548 6.4107 9.86113 6.34782C9.71325 6.22273 9.51702 6.03905 9.31988 5.80101C8.93054 5.33088 8.5 4.60142 8.5 3.66663C8.5 2.73183 8.93054 2.00237 9.31988 1.53224C9.51702 1.2942 9.71325 1.11052 9.86113 0.985434C9.93548 0.922552 9.99872 0.873536 10.0453 0.838963C10.0686 0.821652 10.0878 0.807889 10.1023 0.797748L10.1204 0.785237L10.1266 0.781019L10.129 0.779422L10.13 0.778751C10.1302 0.778608 10.1308 0.778166 10.5 1.33329C10.8692 0.778166 10.8689 0.778023 10.8692 0.778166L10.87 0.778751L10.871 0.779422L10.8734 0.781019L10.8796 0.785237L10.8977 0.797748C10.9122 0.807889 10.9314 0.821652 10.9547 0.838963C11.0013 0.873536 11.0645 0.922552 11.1389 0.985434C11.2868 1.11052 11.483 1.2942 11.6801 1.53224C12.0695 2.00237 12.5 2.73183 12.5 3.66663C12.5 4.45069 12.0472 5.1848 11.7002 5.64797C11.5145 5.89587 11.3303 6.10341 11.1929 6.24886C11.1238 6.32197 11.0656 6.38038 11.0237 6.4214C11.0028 6.44194 10.9858 6.45818 10.9735 6.46981L10.9587 6.48376L10.9541 6.48808L10.9525 6.48956L10.9519 6.49013C10.9517 6.49023 10.9514 6.49058 10.5 5.99996ZM10.5 5.99996L10.1304 6.5548C10.3861 6.72486 10.7254 6.69851 10.9514 6.49058L10.5 5.99996ZM10.4546 5.07364C10.5126 5.00432 10.573 4.92885 10.6331 4.84861C10.9528 4.42178 11.1667 3.98923 11.1667 3.66663C11.1667 3.15476 10.9305 2.71755 10.6532 2.38268C10.6016 2.32038 10.5499 2.26326 10.5 2.21163C10.4501 2.26326 10.3984 2.32038 10.3468 2.38268C10.0695 2.71755 9.83333 3.15476 9.83333 3.66663C9.83333 4.1785 10.0695 4.6157 10.3468 4.95057C10.3829 4.99416 10.419 5.03522 10.4546 5.07364Z" fill="#8CAD51"/>
</svg>
